<svg width="48" height="48" viewBox="0 0 48 48" fill="none" xmlns="http://www.w3.org/2000/svg">
<rect x="4" y="32" width="4" height="4" rx="1" stroke="white" stroke-width="0.25"/>
<rect x="4" y="28" width="4" height="4" rx="1" stroke="white" stroke-width="0.25"/>
<rect x="4" y="24" width="4" height="4" rx="1" stroke="white" stroke-width="0.25"/>
<rect x="4" y="20" width="4" height="4" rx="1" stroke="white" stroke-width="0.25"/>
<rect x="4" y="16" width="4" height="4" rx="1" stroke="white" stroke-width="0.25"/>
<rect x="4" y="12" width="4" height="4" rx="1" stroke="white" stroke-width="0.25"/>
<rect x="40" y="32" width="4" height="4" rx="1" stroke="white" stroke-width="0.25"/>
<rect x="40" y="28" width="4" height="4" rx="1" stroke="white" stroke-width="0.25"/>
<rect x="40" y="24" width="4" height="4" rx="1" stroke="white" stroke-width="0.25"/>
<rect x="40" y="20" width="4" height="4" rx="1" stroke="white" stroke-width="0.25"/>
<rect x="40" y="16" width="4" height="4" rx="1" stroke="white" stroke-width="0.25"/>
<rect x="40" y="12" width="4" height="4" rx="1" stroke="white" stroke-width="0.25"/>
<rect x="32" y="8" width="4" height="4" rx="1" transform="rotate(-90 32 8)" stroke="white" stroke-width="0.25"/>
<rect x="28" y="8" width="4" height="4" rx="1" transform="rotate(-90 28 8)" stroke="white" stroke-width="0.25"/>
<rect x="24" y="8" width="4" height="4" rx="1" transform="rotate(-90 24 8)" stroke="white" stroke-width="0.25"/>
<rect x="20" y="8" width="4" height="4" rx="1" transform="rotate(-90 20 8)" stroke="white" stroke-width="0.25"/>
<rect x="16" y="8" width="4" height="4" rx="1" transform="rotate(-90 16 8)" stroke="white" stroke-width="0.25"/>
<rect x="12" y="8" width="4" height="4" rx="1" transform="rotate(-90 12 8)" stroke="white" stroke-width="0.25"/>
<rect x="32" y="44" width="4" height="4" rx="1" transform="rotate(-90 32 44)" stroke="white" stroke-width="0.25"/>
<rect x="28" y="44" width="4" height="4" rx="1" transform="rotate(-90 28 44)" stroke="white" stroke-width="0.25"/>
<rect x="24" y="44" width="4" height="4" rx="1" transform="rotate(-90 24 44)" stroke="white" stroke-width="0.25"/>
<rect x="20" y="44" width="4" height="4" rx="1" transform="rotate(-90 20 44)" stroke="white" stroke-width="0.25"/>
<rect x="16" y="44" width="4" height="4" rx="1" transform="rotate(-90 16 44)" stroke="white" stroke-width="0.25"/>
<rect x="12" y="44" width="4" height="4" rx="1" transform="rotate(-90 12 44)" stroke="white" stroke-width="0.25"/>
<rect x="36" y="36" width="4" height="4" rx="1" fill="white"/>
<rect x="36" y="40" width="4" height="4" rx="1" fill="white"/>
<rect x="36" y="44" width="4" height="4" rx="1" fill="white"/>
<rect x="40" y="36" width="4" height="4" rx="1" fill="white"/>
<rect x="40" y="40" width="4" height="4" rx="1" fill="white"/>
<rect x="40" y="44" width="4" height="4" rx="1" fill="white"/>
<rect x="44" y="36" width="4" height="4" rx="1" fill="white"/>
<rect x="44" y="40" width="4" height="4" rx="1" fill="white"/>
<rect x="44" y="44" width="4" height="4" rx="1" fill="white"/>
<rect x="36" width="4" height="4" rx="1" fill="white"/>
<rect x="36" y="4" width="4" height="4" rx="1" fill="white"/>
<rect x="36" y="8" width="4" height="4" rx="1" fill="white"/>
<rect x="40" width="4" height="4" rx="1" fill="white"/>
<rect x="40" y="4" width="4" height="4" rx="1" fill="white"/>
<rect x="40" y="8" width="4" height="4" rx="1" fill="white"/>
<rect x="44" width="4" height="4" rx="1" fill="white"/>
<rect x="44" y="4" width="4" height="4" rx="1" fill="white"/>
<rect x="44" y="8" width="4" height="4" rx="1" fill="white"/>
<rect width="4" height="4" rx="1" fill="white"/>
<rect y="4" width="4" height="4" rx="1" fill="white"/>
<rect y="8" width="4" height="4" rx="1" fill="white"/>
<rect x="4" width="4" height="4" rx="1" fill="white"/>
<rect x="4" y="4" width="4" height="4" rx="1" fill="white"/>
<rect x="4" y="8" width="4" height="4" rx="1" fill="white"/>
<rect x="8" width="4" height="4" rx="1" fill="white"/>
<rect x="8" y="4" width="4" height="4" rx="1" fill="white"/>
<rect x="8" y="8" width="4" height="4" rx="1" fill="white"/>
<rect y="36" width="4" height="4" rx="1" fill="white"/>
<rect y="40" width="4" height="4" rx="1" fill="white"/>
<rect y="44" width="4" height="4" rx="1" fill="white"/>
<rect x="4" y="36" width="4" height="4" rx="1" fill="white"/>
<rect x="4" y="40" width="4" height="4" rx="1" fill="white"/>
<rect x="4" y="44" width="4" height="4" rx="1" fill="white"/>
<rect x="8" y="36" width="4" height="4" rx="1" fill="white"/>
<rect x="8" y="40" width="4" height="4" rx="1" fill="white"/>
<rect x="8" y="44" width="4" height="4" rx="1" fill="white"/>
<rect x="28" y="16" width="4" height="4" rx="1" fill="white"/>
<rect x="28" y="28" width="4" height="4" rx="1" fill="white"/>
<rect x="16" y="16" width="4" height="4" rx="1" fill="white"/>
<rect x="16" y="28" width="4" height="4" rx="1" fill="white"/>
<rect x="16" y="20" width="4" height="4" rx="1" fill="white"/>
<rect x="16" y="24" width="4" height="4" rx="1" fill="white"/>
<rect x="20" y="16" width="4" height="4" rx="1" fill="white"/>
<rect x="20" y="20" width="4" height="4" rx="1" fill="white"/>
<rect x="20" y="24" width="4" height="4" rx="1" fill="white"/>
<rect x="20" y="28" width="4" height="4" rx="1" fill="white"/>
<rect x="24" y="16" width="4" height="4" rx="1" fill="white"/>
<rect x="24" y="20" width="4" height="4" rx="1" fill="white"/>
<rect x="24" y="24" width="4" height="4" rx="1" fill="white"/>
<rect x="24" y="28" width="4" height="4" rx="1" fill="white"/>
<rect x="28" y="20" width="4" height="4" rx="1" fill="white"/>
<rect x="28" y="24" width="4" height="4" rx="1" fill="white"/>
<path d="M36 37C36 36.4521 35.5479 36 35 36C35.5479 36 36 35.5479 36 35C36 35.5479 36.4521 36 37 36C36.4521 36 36 36.4521 36 37Z" fill="white"/>
<rect x="32" y="32" width="4" height="4" rx="1" fill="white"/>
<path d="M12 37C12 36.4521 11.5479 36 11 36C11.5479 36 12 35.5479 12 35C12 35.5479 12.4521 36 13 36C12.4521 36 12 36.4521 12 37Z" fill="white"/>
<rect x="12" y="32" width="4" height="4" rx="1" fill="white"/>
<path d="M36 11C36 11.5479 35.5479 12 35 12C35.5479 12 36 12.4521 36 13C36 12.4521 36.4521 12 37 12C36.4521 12 36 11.5479 36 11Z" fill="white"/>
<rect x="32" y="12" width="4" height="4" rx="1" fill="white"/>
<path d="M12 11C12 11.5479 11.5479 12 11 12C11.5479 12 12 12.4521 12 13C12 12.4521 12.4521 12 13 12C12.4521 12 12 11.5479 12 11Z" fill="white"/>
<rect x="12" y="12" width="4" height="4" rx="1" fill="white"/>
</svg>
