<svg width="96" height="96" viewBox="0 0 96 96" fill="none" xmlns="http://www.w3.org/2000/svg">
  <path
    d="M72 15C72 13.3564 70.6436 12 69 12C70.6436 12 72 10.6436 72 9C72 10.6436 73.3564 12 75 12C73.3564 12 72 13.3564 72 15Z"
    fill="#3F37C9" />
  <path
    d="M84 27C84 25.3564 82.6436 24 81 24C82.6436 24 84 22.6436 84 21C84 22.6436 85.3564 24 87 24C85.3564 24 84 25.3564 84 27Z"
    fill="#3F37C9" />
  <path
    d="M24 15C24 13.3564 25.3564 12 27 12C25.3564 12 24 10.6436 24 9C24 10.6436 22.6436 12 21 12C22.6436 12 24 13.3564 24 15Z"
    fill="#3F37C9" />
  <path
    d="M12 27C12 25.3564 13.3564 24 15 24C13.3564 24 12 22.6436 12 21C12 22.6436 10.6436 24 9 24C10.6436 24 12 25.3564 12 27Z"
    fill="#3F37C9" />
  <path
    d="M72 81C72 82.6436 70.6436 84 69 84C70.6436 84 72 85.3564 72 87C72 85.3564 73.3564 84 75 84C73.3564 84 72 82.6436 72 81Z"
    fill="#3F37C9" />
  <path
    d="M84 69C84 70.6436 82.6436 72 81 72C82.6436 72 84 73.3564 84 75C84 73.3564 85.3564 72 87 72C85.3564 72 84 70.6436 84 69Z"
    fill="#3F37C9" />
  <path
    d="M24 81C24 82.6436 25.3564 84 27 84C25.3564 84 24 85.3564 24 87C24 85.3564 22.6436 84 21 84C22.6436 84 24 82.6436 24 81Z"
    fill="#3F37C9" />
  <path
    d="M12 69C12 70.6436 13.3564 72 15 72C13.3564 72 12 73.3564 12 75C12 73.3564 10.6436 72 9 72C10.6436 72 12 70.6436 12 69Z"
    fill="#3F37C9" />
  <rect x="24" width="12" height="12" rx="3" fill="#3F37C9" />
  <rect x="36" width="12" height="12" rx="3" fill="#3F37C9" />
  <rect x="48" width="12" height="12" rx="3" fill="#3F37C9" />
  <rect x="72" y="12" width="12" height="12" rx="3" fill="#3F37C9" />
  <rect x="12" y="12" width="12" height="12" rx="3" fill="#3F37C9" />
  <rect x="60" width="12" height="12" rx="3" fill="#3F37C9" />
  <rect width="12" height="12" rx="3" transform="matrix(1 0 0 -1 24 96)" fill="#3F37C9" />
  <rect width="12" height="12" rx="3" transform="matrix(1 0 0 -1 36 96)" fill="#3F37C9" />
  <rect width="12" height="12" rx="3" transform="matrix(1 0 0 -1 48 96)" fill="#3F37C9" />
  <rect width="12" height="12" rx="3" transform="matrix(1 0 0 -1 72 84)" fill="#3F37C9" />
  <rect width="12" height="12" rx="3" transform="matrix(1 0 0 -1 12 84)" fill="#3F37C9" />
  <rect width="12" height="12" rx="3" transform="matrix(1 0 0 -1 60 96)" fill="#3F37C9" />
  <rect y="72" width="12" height="12" rx="3" transform="rotate(-90 0 72)" fill="#3F37C9" />
  <rect y="36" width="12" height="12" rx="3" transform="rotate(-90 0 36)" fill="#3F37C9" />
  <rect x="96" y="24" width="12" height="12" rx="3" transform="rotate(90 96 24)" fill="#3F37C9" />
  <rect x="96" y="36" width="12" height="12" rx="3" transform="rotate(90 96 36)" fill="#3F37C9" />
  <rect x="12" y="36" width="12" height="12" rx="3" transform="rotate(90 12 36)" fill="#3F37C9" />
  <rect x="96" y="48" width="12" height="12" rx="3" transform="rotate(90 96 48)" fill="#3F37C9" />
  <rect x="12" y="48" width="12" height="12" rx="3" transform="rotate(90 12 48)" fill="#3F37C9" />
  <rect x="96" y="60" width="12" height="12" rx="3" transform="rotate(90 96 60)" fill="#3F37C9" />
  <path
    d="M72 69C72 70.6436 70.6436 72 69 72C70.6436 72 72 73.3564 72 75C72 73.3564 73.3564 72 75 72C73.3564 72 72 70.6436 72 69Z"
    fill="#3F37C9" />
  <path
    d="M84 81C84 82.6436 82.6436 84 81 84C82.6436 84 84 85.3564 84 87C84 85.3564 85.3564 84 87 84C85.3564 84 84 82.6436 84 81Z"
    fill="#3F37C9" />
  <path
    d="M24 21C24 22.6436 22.6436 24 21 24C22.6436 24 24 25.3564 24 27C24 25.3564 25.3564 24 27 24C25.3564 24 24 22.6436 24 21Z"
    fill="#3F37C9" />
  <path
    d="M36 33C36 34.6436 34.6436 36 33 36C34.6436 36 36 37.3564 36 39C36 37.3564 37.3564 36 39 36C37.3564 36 36 34.6436 36 33Z"
    fill="#3F37C9" />
  <path
    d="M12 9C12 10.6436 10.6436 12 9 12C10.6436 12 12 13.3564 12 15C12 13.3564 13.3564 12 15 12C13.3564 12 12 10.6436 12 9Z"
    fill="#3F37C9" />
  <path
    d="M24 69C24 70.6436 22.6436 72 21 72C22.6436 72 24 73.3564 24 75C24 73.3564 25.3564 72 27 72C25.3564 72 24 70.6436 24 69Z"
    fill="#3F37C9" />
  <path
    d="M12 81C12 82.6436 10.6436 84 9 84C10.6436 84 12 85.3564 12 87C12 85.3564 13.3564 84 15 84C13.3564 84 12 82.6436 12 81Z"
    fill="#3F37C9" />
  <path
    d="M72 21C72 22.6436 70.6436 24 69 24C70.6436 24 72 25.3564 72 27C72 25.3564 73.3564 24 75 24C73.3564 24 72 22.6436 72 21Z"
    fill="#3F37C9" />
  <path
    d="M60 33C60 34.6436 58.6436 36 57 36C58.6436 36 60 37.3564 60 39C60 37.3564 61.3564 36 63 36C61.3564 36 60 34.6436 60 33Z"
    fill="#3F37C9" />
  <path
    d="M84 9C84 10.6436 82.6436 12 81 12C82.6436 12 84 13.3564 84 15C84 13.3564 85.3564 12 87 12C85.3564 12 84 10.6436 84 9Z"
    fill="#3F37C9" />
  <rect x="24" y="24" width="12" height="12" rx="3" fill="#3F37C9" />
  <rect x="36" y="36" width="12" height="12" rx="3" fill="#3F37C9" />
  <rect width="12" height="12" rx="3" fill="#3F37C9" />
  <rect x="24" y="60" width="12" height="12" rx="3" fill="#3F37C9" />
  <rect y="84" width="12" height="12" rx="3" fill="#3F37C9" />
  <rect x="60" y="24" width="12" height="12" rx="3" fill="#3F37C9" />
  <rect x="48" y="36" width="12" height="12" rx="3" fill="#3F37C9" />
  <path
    d="M36 63C36 61.3564 34.6436 60 33 60C34.6436 60 36 58.6436 36 57C36 58.6436 37.3564 60 39 60C37.3564 60 36 61.3564 36 63Z"
    fill="#3F37C9" />
  <path
    d="M60 63C60 61.3564 58.6436 60 57 60C58.6436 60 60 58.6436 60 57C60 58.6436 61.3564 60 63 60C61.3564 60 60 61.3564 60 63Z"
    fill="#3F37C9" />
  <rect width="12" height="12" rx="3" transform="matrix(1 0 0 -1 36 60)" fill="#3F37C9" />
  <rect width="12" height="12" rx="3" transform="matrix(1 0 0 -1 48 60)" fill="#3F37C9" />
  <rect x="84" width="12" height="12" rx="3" fill="#3F37C9" />
  <rect x="60" y="60" width="12" height="12" rx="3" fill="#3F37C9" />
  <rect x="84" y="84" width="12" height="12" rx="3" fill="#3F37C9" />
</svg>